<svg xmlns="http://www.w3.org/2000/svg" width="860" height="207" viewBox="0 0 860 207" font-family='ui-sans-serif,system-ui,-apple-system,"Segoe UI",Roboto,Helvetica,Arial,sans-serif' role="img" aria-labelledby="t d"><title id="t">Contribution activity</title><desc id="d">5500 contributions by rperez93 in the last year, one square per day.</desc><rect x="20.5" y="16.5" width="819" height="174" rx="12" fill="none" stroke="#3d444d"/><g transform="translate(38,32) scale(1.0)" fill="none" stroke="#9198a1" stroke-width="2" stroke-linecap="round" stroke-linejoin="round"><circle cx="12" cy="12" r="4"/><line x1="1.05" y1="12" x2="7" y2="12"/><line x1="17.01" y1="12" x2="22.96" y2="12"/></g><text x="72" y="52" font-size="22" fill="#9198a1">5500 contributions in the last year</text><rect x="38" y="68" width="12" height="12" rx="2" fill="#3d444d"><title>2025-09-28: 0</title></rect><rect x="38" y="83" width="12" height="12" rx="2" fill="#4493f899"><title>2025-09-29: 4</title></rect><rect x="38" y="98" width="12" height="12" rx="2" fill="#4493f899"><title>2025-09-30: 4</title></rect><rect x="38" y="113" width="12" height="12" rx="2" fill="#4493f855"><title>2025-10-01: 2</title></rect><rect x="38" y="128" width="12" height="12" rx="2" fill="#4493f899"><title>2025-10-02: 3</title></rect><rect x="38" y="143" width="12" height="12" rx="2" fill="#4493f855"><title>2025-10-03: 2</title></rect><rect x="38" y="158" width="12" height="12" rx="2" fill="#3d444d"><title>2025-10-04: 0</title></rect><rect x="53" y="68" width="12" height="12" rx="2" fill="#3d444d"><title>2025-10-05: 0</title></rect><rect x="53" y="83" width="12" height="12" rx="2" fill="#3d444d"><title>2025-10-06: 0</title></rect><rect x="53" y="98" width="12" height="12" rx="2" fill="#3d444d"><title>2025-10-07: 0</title></rect><rect x="53" y="113" width="12" height="12" rx="2" fill="#3d444d"><title>2025-10-08: 0</title></rect><rect x="53" y="128" width="12" height="12" rx="2" fill="#3d444d"><title>2025-10-09: 0</title></rect><rect x="53" y="143" width="12" height="12" rx="2" fill="#3d444d"><title>2025-10-10: 0</title></rect><rect x="53" y="158" width="12" height="12" rx="2" fill="#3d444d"><title>2025-10-11: 0</title></rect><rect x="68" y="68" width="12" height="12" rx="2" fill="#3d444d"><title>2025-10-12: 0</title></rect><rect x="68" y="83" width="12" height="12" rx="2" fill="#3d444d"><title>2025-10-13: 0</title></rect><rect x="68" y="98" width="12" height="12" rx="2" fill="#3d444d"><title>2025-10-14: 0</title></rect><rect x="68" y="113" width="12" height="12" rx="2" fill="#3d444d"><title>2025-10-15: 0</title></rect><rect x="68" y="128" width="12" height="12" rx="2" fill="#3d444d"><title>2025-10-16: 0</title></rect><rect x="68" y="143" width="12" height="12" rx="2" fill="#3d444d"><title>2025-10-17: 0</title></rect><rect x="68" y="158" width="12" height="12" rx="2" fill="#3d444d"><title>2025-10-18: 0</title></rect><rect x="83" y="68" width="12" height="12" rx="2" fill="#3d444d"><title>2025-10-19: 0</title></rect><rect x="83" y="83" width="12" height="12" rx="2" fill="#3d444d"><title>2025-10-20: 0</title></rect><rect x="83" y="98" width="12" height="12" rx="2" fill="#3d444d"><title>2025-10-21: 0</title></rect><rect x="83" y="113" width="12" height="12" rx="2" fill="#4493f899"><title>2025-10-22: 5</title></rect><rect x="83" y="128" width="12" height="12" rx="2" fill="#4493f899"><title>2025-10-23: 4</title></rect><rect x="83" y="143" width="12" height="12" rx="2" fill="#4493f899"><title>2025-10-24: 4</title></rect><rect x="83" y="158" width="12" height="12" rx="2" fill="#3d444d"><title>2025-10-25: 0</title></rect><rect x="98" y="68" width="12" height="12" rx="2" fill="#3d444d"><title>2025-10-26: 0</title></rect><rect x="98" y="83" width="12" height="12" rx="2" fill="#3d444d"><title>2025-10-27: 0</title></rect><rect x="98" y="98" width="12" height="12" rx="2" fill="#4493f855"><title>2025-10-28: 1</title></rect><rect x="98" y="113" width="12" height="12" rx="2" fill="#4493f899"><title>2025-10-29: 4</title></rect><rect x="98" y="128" width="12" height="12" rx="2" fill="#4493f855"><title>2025-10-30: 1</title></rect><rect x="98" y="143" width="12" height="12" rx="2" fill="#3d444d"><title>2025-10-31: 0</title></rect><rect x="98" y="158" width="12" height="12" rx="2" fill="#3d444d"><title>2025-11-01: 0</title></rect><rect x="113" y="68" width="12" height="12" rx="2" fill="#3d444d"><title>2025-11-02: 0</title></rect><rect x="113" y="83" width="12" height="12" rx="2" fill="#3d444d"><title>2025-11-03: 0</title></rect><rect x="113" y="98" width="12" height="12" rx="2" fill="#4493f8cc"><title>2025-11-04: 6</title></rect><rect x="113" y="113" width="12" height="12" rx="2" fill="#4493f855"><title>2025-11-05: 2</title></rect><rect x="113" y="128" width="12" height="12" rx="2" fill="#4493f899"><title>2025-11-06: 5</title></rect><rect x="113" y="143" width="12" height="12" rx="2" fill="#4493f899"><title>2025-11-07: 4</title></rect><rect x="113" y="158" width="12" height="12" rx="2" fill="#3d444d"><title>2025-11-08: 0</title></rect><rect x="128" y="68" width="12" height="12" rx="2" fill="#3d444d"><title>2025-11-09: 0</title></rect><rect x="128" y="83" width="12" height="12" rx="2" fill="#3d444d"><title>2025-11-10: 0</title></rect><rect x="128" y="98" width="12" height="12" rx="2" fill="#4493f855"><title>2025-11-11: 1</title></rect><rect x="128" y="113" width="12" height="12" rx="2" fill="#4493f855"><title>2025-11-12: 1</title></rect><rect x="128" y="128" width="12" height="12" rx="2" fill="#4493f855"><title>2025-11-13: 1</title></rect><rect x="128" y="143" width="12" height="12" rx="2" fill="#3d444d"><title>2025-11-14: 0</title></rect><rect x="128" y="158" width="12" height="12" rx="2" fill="#3d444d"><title>2025-11-15: 0</title></rect><rect x="143" y="68" width="12" height="12" rx="2" fill="#3d444d"><title>2025-11-16: 0</title></rect><rect x="143" y="83" width="12" height="12" rx="2" fill="#3d444d"><title>2025-11-17: 0</title></rect><rect x="143" y="98" width="12" height="12" rx="2" fill="#3d444d"><title>2025-11-18: 0</title></rect><rect x="143" y="113" width="12" height="12" rx="2" fill="#3d444d"><title>2025-11-19: 0</title></rect><rect x="143" y="128" width="12" height="12" rx="2" fill="#3d444d"><title>2025-11-20: 0</title></rect><rect x="143" y="143" width="12" height="12" rx="2" fill="#3d444d"><title>2025-11-21: 0</title></rect><rect x="143" y="158" width="12" height="12" rx="2" fill="#3d444d"><title>2025-11-22: 0</title></rect><rect x="158" y="68" width="12" height="12" rx="2" fill="#3d444d"><title>2025-11-23: 0</title></rect><rect x="158" y="83" width="12" height="12" rx="2" fill="#3d444d"><title>2025-11-24: 0</title></rect><rect x="158" y="98" width="12" height="12" rx="2" fill="#3d444d"><title>2025-11-25: 0</title></rect><rect x="158" y="113" width="12" height="12" rx="2" fill="#3d444d"><title>2025-11-26: 0</title></rect><rect x="158" y="128" width="12" height="12" rx="2" fill="#4493f855"><title>2025-11-27: 1</title></rect><rect x="158" y="143" width="12" height="12" rx="2" fill="#3d444d"><title>2025-11-28: 0</title></rect><rect x="158" y="158" width="12" height="12" rx="2" fill="#3d444d"><title>2025-11-29: 0</title></rect><rect x="173" y="68" width="12" height="12" rx="2" fill="#3d444d"><title>2025-11-30: 0</title></rect><rect x="173" y="83" width="12" height="12" rx="2" fill="#4493f855"><title>2025-12-01: 1</title></rect><rect x="173" y="98" width="12" height="12" rx="2" fill="#4493f8"><title>2025-12-02: 45</title></rect><rect x="173" y="113" width="12" height="12" rx="2" fill="#4493f899"><title>2025-12-03: 3</title></rect><rect x="173" y="128" width="12" height="12" rx="2" fill="#4493f8cc"><title>2025-12-04: 7</title></rect><rect x="173" y="143" width="12" height="12" rx="2" fill="#3d444d"><title>2025-12-05: 0</title></rect><rect x="173" y="158" width="12" height="12" rx="2" fill="#3d444d"><title>2025-12-06: 0</title></rect><rect x="188" y="68" width="12" height="12" rx="2" fill="#4493f855"><title>2025-12-07: 2</title></rect><rect x="188" y="83" width="12" height="12" rx="2" fill="#4493f899"><title>2025-12-08: 5</title></rect><rect x="188" y="98" width="12" height="12" rx="2" fill="#4493f899"><title>2025-12-09: 3</title></rect><rect x="188" y="113" width="12" height="12" rx="2" fill="#4493f855"><title>2025-12-10: 1</title></rect><rect x="188" y="128" width="12" height="12" rx="2" fill="#4493f855"><title>2025-12-11: 1</title></rect><rect x="188" y="143" width="12" height="12" rx="2" fill="#4493f855"><title>2025-12-12: 1</title></rect><rect x="188" y="158" width="12" height="12" rx="2" fill="#3d444d"><title>2025-12-13: 0</title></rect><rect x="203" y="68" width="12" height="12" rx="2" fill="#3d444d"><title>2025-12-14: 0</title></rect><rect x="203" y="83" width="12" height="12" rx="2" fill="#4493f855"><title>2025-12-15: 1</title></rect><rect x="203" y="98" width="12" height="12" rx="2" fill="#3d444d"><title>2025-12-16: 0</title></rect><rect x="203" y="113" width="12" height="12" rx="2" fill="#3d444d"><title>2025-12-17: 0</title></rect><rect x="203" y="128" width="12" height="12" rx="2" fill="#3d444d"><title>2025-12-18: 0</title></rect><rect x="203" y="143" width="12" height="12" rx="2" fill="#3d444d"><title>2025-12-19: 0</title></rect><rect x="203" y="158" width="12" height="12" rx="2" fill="#3d444d"><title>2025-12-20: 0</title></rect><rect x="218" y="68" width="12" height="12" rx="2" fill="#3d444d"><title>2025-12-21: 0</title></rect><rect x="218" y="83" width="12" height="12" rx="2" fill="#4493f855"><title>2025-12-22: 2</title></rect><rect x="218" y="98" width="12" height="12" rx="2" fill="#4493f899"><title>2025-12-23: 3</title></rect><rect x="218" y="113" width="12" height="12" rx="2" fill="#4493f855"><title>2025-12-24: 2</title></rect><rect x="218" y="128" width="12" height="12" rx="2" fill="#3d444d"><title>2025-12-25: 0</title></rect><rect x="218" y="143" width="12" height="12" rx="2" fill="#3d444d"><title>2025-12-26: 0</title></rect><rect x="218" y="158" width="12" height="12" rx="2" fill="#3d444d"><title>2025-12-27: 0</title></rect><rect x="233" y="68" width="12" height="12" rx="2" fill="#3d444d"><title>2025-12-28: 0</title></rect><rect x="233" y="83" width="12" height="12" rx="2" fill="#4493f899"><title>2025-12-29: 4</title></rect><rect x="233" y="98" width="12" height="12" rx="2" fill="#4493f899"><title>2025-12-30: 3</title></rect><rect x="233" y="113" width="12" height="12" rx="2" fill="#4493f855"><title>2025-12-31: 1</title></rect><rect x="233" y="128" width="12" height="12" rx="2" fill="#3d444d"><title>2026-01-01: 0</title></rect><rect x="233" y="143" width="12" height="12" rx="2" fill="#3d444d"><title>2026-01-02: 0</title></rect><rect x="233" y="158" width="12" height="12" rx="2" fill="#3d444d"><title>2026-01-03: 0</title></rect><rect x="248" y="68" width="12" height="12" rx="2" fill="#3d444d"><title>2026-01-04: 0</title></rect><rect x="248" y="83" width="12" height="12" rx="2" fill="#3d444d"><title>2026-01-05: 0</title></rect><rect x="248" y="98" width="12" height="12" rx="2" fill="#3d444d"><title>2026-01-06: 0</title></rect><rect x="248" y="113" width="12" height="12" rx="2" fill="#3d444d"><title>2026-01-07: 0</title></rect><rect x="248" y="128" width="12" height="12" rx="2" fill="#4493f855"><title>2026-01-08: 1</title></rect><rect x="248" y="143" width="12" height="12" rx="2" fill="#4493f899"><title>2026-01-09: 3</title></rect><rect x="248" y="158" width="12" height="12" rx="2" fill="#3d444d"><title>2026-01-10: 0</title></rect><rect x="263" y="68" width="12" height="12" rx="2" fill="#3d444d"><title>2026-01-11: 0</title></rect><rect x="263" y="83" width="12" height="12" rx="2" fill="#3d444d"><title>2026-01-12: 0</title></rect><rect x="263" y="98" width="12" height="12" rx="2" fill="#4493f855"><title>2026-01-13: 2</title></rect><rect x="263" y="113" width="12" height="12" rx="2" fill="#4493f899"><title>2026-01-14: 3</title></rect><rect x="263" y="128" width="12" height="12" rx="2" fill="#3d444d"><title>2026-01-15: 0</title></rect><rect x="263" y="143" width="12" height="12" rx="2" fill="#3d444d"><title>2026-01-16: 0</title></rect><rect x="263" y="158" width="12" height="12" rx="2" fill="#3d444d"><title>2026-01-17: 0</title></rect><rect x="278" y="68" width="12" height="12" rx="2" fill="#3d444d"><title>2026-01-18: 0</title></rect><rect x="278" y="83" width="12" height="12" rx="2" fill="#3d444d"><title>2026-01-19: 0</title></rect><rect x="278" y="98" width="12" height="12" rx="2" fill="#3d444d"><title>2026-01-20: 0</title></rect><rect x="278" y="113" width="12" height="12" rx="2" fill="#3d444d"><title>2026-01-21: 0</title></rect><rect x="278" y="128" width="12" height="12" rx="2" fill="#4493f899"><title>2026-01-22: 4</title></rect><rect x="278" y="143" width="12" height="12" rx="2" fill="#4493f8cc"><title>2026-01-23: 7</title></rect><rect x="278" y="158" width="12" height="12" rx="2" fill="#3d444d"><title>2026-01-24: 0</title></rect><rect x="293" y="68" width="12" height="12" rx="2" fill="#3d444d"><title>2026-01-25: 0</title></rect><rect x="293" y="83" width="12" height="12" rx="2" fill="#3d444d"><title>2026-01-26: 0</title></rect><rect x="293" y="98" width="12" height="12" rx="2" fill="#3d444d"><title>2026-01-27: 0</title></rect><rect x="293" y="113" width="12" height="12" rx="2" fill="#3d444d"><title>2026-01-28: 0</title></rect><rect x="293" y="128" width="12" height="12" rx="2" fill="#4493f8cc"><title>2026-01-29: 6</title></rect><rect x="293" y="143" width="12" height="12" rx="2" fill="#4493f855"><title>2026-01-30: 2</title></rect><rect x="293" y="158" width="12" height="12" rx="2" fill="#3d444d"><title>2026-01-31: 0</title></rect><rect x="308" y="68" width="12" height="12" rx="2" fill="#3d444d"><title>2026-02-01: 0</title></rect><rect x="308" y="83" width="12" height="12" rx="2" fill="#3d444d"><title>2026-02-02: 0</title></rect><rect x="308" y="98" width="12" height="12" rx="2" fill="#4493f855"><title>2026-02-03: 1</title></rect><rect x="308" y="113" width="12" height="12" rx="2" fill="#4493f855"><title>2026-02-04: 2</title></rect><rect x="308" y="128" width="12" height="12" rx="2" fill="#4493f8cc"><title>2026-02-05: 9</title></rect><rect x="308" y="143" width="12" height="12" rx="2" fill="#4493f8cc"><title>2026-02-06: 7</title></rect><rect x="308" y="158" width="12" height="12" rx="2" fill="#3d444d"><title>2026-02-07: 0</title></rect><rect x="323" y="68" width="12" height="12" rx="2" fill="#3d444d"><title>2026-02-08: 0</title></rect><rect x="323" y="83" width="12" height="12" rx="2" fill="#4493f8cc"><title>2026-02-09: 9</title></rect><rect x="323" y="98" width="12" height="12" rx="2" fill="#4493f855"><title>2026-02-10: 2</title></rect><rect x="323" y="113" width="12" height="12" rx="2" fill="#4493f899"><title>2026-02-11: 3</title></rect><rect x="323" y="128" width="12" height="12" rx="2" fill="#3d444d"><title>2026-02-12: 0</title></rect><rect x="323" y="143" width="12" height="12" rx="2" fill="#4493f855"><title>2026-02-13: 2</title></rect><rect x="323" y="158" width="12" height="12" rx="2" fill="#3d444d"><title>2026-02-14: 0</title></rect><rect x="338" y="68" width="12" height="12" rx="2" fill="#4493f899"><title>2026-02-15: 3</title></rect><rect x="338" y="83" width="12" height="12" rx="2" fill="#4493f899"><title>2026-02-16: 4</title></rect><rect x="338" y="98" width="12" height="12" rx="2" fill="#4493f855"><title>2026-02-17: 2</title></rect><rect x="338" y="113" width="12" height="12" rx="2" fill="#4493f899"><title>2026-02-18: 3</title></rect><rect x="338" y="128" width="12" height="12" rx="2" fill="#4493f855"><title>2026-02-19: 1</title></rect><rect x="338" y="143" width="12" height="12" rx="2" fill="#4493f8cc"><title>2026-02-20: 12</title></rect><rect x="338" y="158" width="12" height="12" rx="2" fill="#3d444d"><title>2026-02-21: 0</title></rect><rect x="353" y="68" width="12" height="12" rx="2" fill="#3d444d"><title>2026-02-22: 0</title></rect><rect x="353" y="83" width="12" height="12" rx="2" fill="#4493f855"><title>2026-02-23: 1</title></rect><rect x="353" y="98" width="12" height="12" rx="2" fill="#4493f899"><title>2026-02-24: 3</title></rect><rect x="353" y="113" width="12" height="12" rx="2" fill="#3d444d"><title>2026-02-25: 0</title></rect><rect x="353" y="128" width="12" height="12" rx="2" fill="#4493f899"><title>2026-02-26: 4</title></rect><rect x="353" y="143" width="12" height="12" rx="2" fill="#4493f8cc"><title>2026-02-27: 8</title></rect><rect x="353" y="158" width="12" height="12" rx="2" fill="#4493f899"><title>2026-02-28: 4</title></rect><rect x="368" y="68" width="12" height="12" rx="2" fill="#4493f855"><title>2026-03-01: 1</title></rect><rect x="368" y="83" width="12" height="12" rx="2" fill="#4493f8cc"><title>2026-03-02: 10</title></rect><rect x="368" y="98" width="12" height="12" rx="2" fill="#4493f855"><title>2026-03-03: 2</title></rect><rect x="368" y="113" width="12" height="12" rx="2" fill="#3d444d"><title>2026-03-04: 0</title></rect><rect x="368" y="128" width="12" height="12" rx="2" fill="#3d444d"><title>2026-03-05: 0</title></rect><rect x="368" y="143" width="12" height="12" rx="2" fill="#4493f8cc"><title>2026-03-06: 10</title></rect><rect x="368" y="158" width="12" height="12" rx="2" fill="#4493f855"><title>2026-03-07: 1</title></rect><rect x="383" y="68" width="12" height="12" rx="2" fill="#3d444d"><title>2026-03-08: 0</title></rect><rect x="383" y="83" width="12" height="12" rx="2" fill="#3d444d"><title>2026-03-09: 0</title></rect><rect x="383" y="98" width="12" height="12" rx="2" fill="#4493f899"><title>2026-03-10: 3</title></rect><rect x="383" y="113" width="12" height="12" rx="2" fill="#4493f8cc"><title>2026-03-11: 7</title></rect><rect x="383" y="128" width="12" height="12" rx="2" fill="#4493f899"><title>2026-03-12: 3</title></rect><rect x="383" y="143" width="12" height="12" rx="2" fill="#4493f855"><title>2026-03-13: 2</title></rect><rect x="383" y="158" width="12" height="12" rx="2" fill="#3d444d"><title>2026-03-14: 0</title></rect><rect x="398" y="68" width="12" height="12" rx="2" fill="#3d444d"><title>2026-03-15: 0</title></rect><rect x="398" y="83" width="12" height="12" rx="2" fill="#4493f855"><title>2026-03-16: 1</title></rect><rect x="398" y="98" width="12" height="12" rx="2" fill="#4493f899"><title>2026-03-17: 5</title></rect><rect x="398" y="113" width="12" height="12" rx="2" fill="#4493f8cc"><title>2026-03-18: 6</title></rect><rect x="398" y="128" width="12" height="12" rx="2" fill="#4493f899"><title>2026-03-19: 3</title></rect><rect x="398" y="143" width="12" height="12" rx="2" fill="#4493f855"><title>2026-03-20: 2</title></rect><rect x="398" y="158" width="12" height="12" rx="2" fill="#3d444d"><title>2026-03-21: 0</title></rect><rect x="413" y="68" width="12" height="12" rx="2" fill="#4493f855"><title>2026-03-22: 1</title></rect><rect x="413" y="83" width="12" height="12" rx="2" fill="#3d444d"><title>2026-03-23: 0</title></rect><rect x="413" y="98" width="12" height="12" rx="2" fill="#4493f855"><title>2026-03-24: 1</title></rect><rect x="413" y="113" width="12" height="12" rx="2" fill="#4493f8cc"><title>2026-03-25: 7</title></rect><rect x="413" y="128" width="12" height="12" rx="2" fill="#4493f899"><title>2026-03-26: 4</title></rect><rect x="413" y="143" width="12" height="12" rx="2" fill="#4493f899"><title>2026-03-27: 3</title></rect><rect x="413" y="158" width="12" height="12" rx="2" fill="#4493f855"><title>2026-03-28: 1</title></rect><rect x="428" y="68" width="12" height="12" rx="2" fill="#3d444d"><title>2026-03-29: 0</title></rect><rect x="428" y="83" width="12" height="12" rx="2" fill="#4493f8cc"><title>2026-03-30: 11</title></rect><rect x="428" y="98" width="12" height="12" rx="2" fill="#4493f8cc"><title>2026-03-31: 8</title></rect><rect x="428" y="113" width="12" height="12" rx="2" fill="#4493f8cc"><title>2026-04-01: 8</title></rect><rect x="428" y="128" width="12" height="12" rx="2" fill="#4493f855"><title>2026-04-02: 2</title></rect><rect x="428" y="143" width="12" height="12" rx="2" fill="#3d444d"><title>2026-04-03: 0</title></rect><rect x="428" y="158" width="12" height="12" rx="2" fill="#3d444d"><title>2026-04-04: 0</title></rect><rect x="443" y="68" width="12" height="12" rx="2" fill="#4493f899"><title>2026-04-05: 4</title></rect><rect x="443" y="83" width="12" height="12" rx="2" fill="#4493f899"><title>2026-04-06: 5</title></rect><rect x="443" y="98" width="12" height="12" rx="2" fill="#4493f8"><title>2026-04-07: 23</title></rect><rect x="443" y="113" width="12" height="12" rx="2" fill="#3d444d"><title>2026-04-08: 0</title></rect><rect x="443" y="128" width="12" height="12" rx="2" fill="#3d444d"><title>2026-04-09: 0</title></rect><rect x="443" y="143" width="12" height="12" rx="2" fill="#4493f899"><title>2026-04-10: 3</title></rect><rect x="443" y="158" width="12" height="12" rx="2" fill="#3d444d"><title>2026-04-11: 0</title></rect><rect x="458" y="68" width="12" height="12" rx="2" fill="#3d444d"><title>2026-04-12: 0</title></rect><rect x="458" y="83" width="12" height="12" rx="2" fill="#4493f899"><title>2026-04-13: 4</title></rect><rect x="458" y="98" width="12" height="12" rx="2" fill="#4493f8"><title>2026-04-14: 20</title></rect><rect x="458" y="113" width="12" height="12" rx="2" fill="#4493f8cc"><title>2026-04-15: 7</title></rect><rect x="458" y="128" width="12" height="12" rx="2" fill="#4493f8"><title>2026-04-16: 43</title></rect><rect x="458" y="143" width="12" height="12" rx="2" fill="#4493f8cc"><title>2026-04-17: 18</title></rect><rect x="458" y="158" width="12" height="12" rx="2" fill="#3d444d"><title>2026-04-18: 0</title></rect><rect x="473" y="68" width="12" height="12" rx="2" fill="#3d444d"><title>2026-04-19: 0</title></rect><rect x="473" y="83" width="12" height="12" rx="2" fill="#4493f8"><title>2026-04-20: 45</title></rect><rect x="473" y="98" width="12" height="12" rx="2" fill="#4493f855"><title>2026-04-21: 2</title></rect><rect x="473" y="113" width="12" height="12" rx="2" fill="#4493f8"><title>2026-04-22: 22</title></rect><rect x="473" y="128" width="12" height="12" rx="2" fill="#4493f8"><title>2026-04-23: 29</title></rect><rect x="473" y="143" width="12" height="12" rx="2" fill="#4493f8cc"><title>2026-04-24: 8</title></rect><rect x="473" y="158" width="12" height="12" rx="2" fill="#3d444d"><title>2026-04-25: 0</title></rect><rect x="488" y="68" width="12" height="12" rx="2" fill="#4493f855"><title>2026-04-26: 1</title></rect><rect x="488" y="83" width="12" height="12" rx="2" fill="#4493f8cc"><title>2026-04-27: 7</title></rect><rect x="488" y="98" width="12" height="12" rx="2" fill="#4493f8"><title>2026-04-28: 24</title></rect><rect x="488" y="113" width="12" height="12" rx="2" fill="#4493f8"><title>2026-04-29: 26</title></rect><rect x="488" y="128" width="12" height="12" rx="2" fill="#4493f8"><title>2026-04-30: 20</title></rect><rect x="488" y="143" width="12" height="12" rx="2" fill="#3d444d"><title>2026-05-01: 0</title></rect><rect x="488" y="158" width="12" height="12" rx="2" fill="#4493f8"><title>2026-05-02: 25</title></rect><rect x="503" y="68" width="12" height="12" rx="2" fill="#4493f8cc"><title>2026-05-03: 6</title></rect><rect x="503" y="83" width="12" height="12" rx="2" fill="#4493f8"><title>2026-05-04: 21</title></rect><rect x="503" y="98" width="12" height="12" rx="2" fill="#4493f899"><title>2026-05-05: 4</title></rect><rect x="503" y="113" width="12" height="12" rx="2" fill="#4493f8"><title>2026-05-06: 40</title></rect><rect x="503" y="128" width="12" height="12" rx="2" fill="#4493f8cc"><title>2026-05-07: 18</title></rect><rect x="503" y="143" width="12" height="12" rx="2" fill="#4493f8cc"><title>2026-05-08: 9</title></rect><rect x="503" y="158" width="12" height="12" rx="2" fill="#4493f855"><title>2026-05-09: 1</title></rect><rect x="518" y="68" width="12" height="12" rx="2" fill="#3d444d"><title>2026-05-10: 0</title></rect><rect x="518" y="83" width="12" height="12" rx="2" fill="#3d444d"><title>2026-05-11: 0</title></rect><rect x="518" y="98" width="12" height="12" rx="2" fill="#4493f8cc"><title>2026-05-12: 6</title></rect><rect x="518" y="113" width="12" height="12" rx="2" fill="#3d444d"><title>2026-05-13: 0</title></rect><rect x="518" y="128" width="12" height="12" rx="2" fill="#4493f899"><title>2026-05-14: 3</title></rect><rect x="518" y="143" width="12" height="12" rx="2" fill="#3d444d"><title>2026-05-15: 0</title></rect><rect x="518" y="158" width="12" height="12" rx="2" fill="#3d444d"><title>2026-05-16: 0</title></rect><rect x="533" y="68" width="12" height="12" rx="2" fill="#3d444d"><title>2026-05-17: 0</title></rect><rect x="533" y="83" width="12" height="12" rx="2" fill="#4493f8cc"><title>2026-05-18: 8</title></rect><rect x="533" y="98" width="12" height="12" rx="2" fill="#4493f8cc"><title>2026-05-19: 11</title></rect><rect x="533" y="113" width="12" height="12" rx="2" fill="#4493f8cc"><title>2026-05-20: 10</title></rect><rect x="533" y="128" width="12" height="12" rx="2" fill="#4493f8cc"><title>2026-05-21: 7</title></rect><rect x="533" y="143" width="12" height="12" rx="2" fill="#3d444d"><title>2026-05-22: 0</title></rect><rect x="533" y="158" width="12" height="12" rx="2" fill="#3d444d"><title>2026-05-23: 0</title></rect><rect x="548" y="68" width="12" height="12" rx="2" fill="#3d444d"><title>2026-05-24: 0</title></rect><rect x="548" y="83" width="12" height="12" rx="2" fill="#4493f899"><title>2026-05-25: 3</title></rect><rect x="548" y="98" width="12" height="12" rx="2" fill="#3d444d"><title>2026-05-26: 0</title></rect><rect x="548" y="113" width="12" height="12" rx="2" fill="#4493f8cc"><title>2026-05-27: 11</title></rect><rect x="548" y="128" width="12" height="12" rx="2" fill="#4493f8"><title>2026-05-28: 31</title></rect><rect x="548" y="143" width="12" height="12" rx="2" fill="#3d444d"><title>2026-05-29: 0</title></rect><rect x="548" y="158" width="12" height="12" rx="2" fill="#3d444d"><title>2026-05-30: 0</title></rect><rect x="563" y="68" width="12" height="12" rx="2" fill="#3d444d"><title>2026-05-31: 0</title></rect><rect x="563" y="83" width="12" height="12" rx="2" fill="#3d444d"><title>2026-06-01: 0</title></rect><rect x="563" y="98" width="12" height="12" rx="2" fill="#3d444d"><title>2026-06-02: 0</title></rect><rect x="563" y="113" width="12" height="12" rx="2" fill="#4493f899"><title>2026-06-03: 5</title></rect><rect x="563" y="128" width="12" height="12" rx="2" fill="#4493f855"><title>2026-06-04: 2</title></rect><rect x="563" y="143" width="12" height="12" rx="2" fill="#3d444d"><title>2026-06-05: 0</title></rect><rect x="563" y="158" width="12" height="12" rx="2" fill="#3d444d"><title>2026-06-06: 0</title></rect><rect x="578" y="68" width="12" height="12" rx="2" fill="#3d444d"><title>2026-06-07: 0</title></rect><rect x="578" y="83" width="12" height="12" rx="2" fill="#4493f8cc"><title>2026-06-08: 7</title></rect><rect x="578" y="98" width="12" height="12" rx="2" fill="#4493f855"><title>2026-06-09: 1</title></rect><rect x="578" y="113" width="12" height="12" rx="2" fill="#4493f899"><title>2026-06-10: 3</title></rect><rect x="578" y="128" width="12" height="12" rx="2" fill="#4493f855"><title>2026-06-11: 2</title></rect><rect x="578" y="143" width="12" height="12" rx="2" fill="#3d444d"><title>2026-06-12: 0</title></rect><rect x="578" y="158" width="12" height="12" rx="2" fill="#3d444d"><title>2026-06-13: 0</title></rect><rect x="593" y="68" width="12" height="12" rx="2" fill="#3d444d"><title>2026-06-14: 0</title></rect><rect x="593" y="83" width="12" height="12" rx="2" fill="#3d444d"><title>2026-06-15: 0</title></rect><rect x="593" y="98" width="12" height="12" rx="2" fill="#3d444d"><title>2026-06-16: 0</title></rect><rect x="593" y="113" width="12" height="12" rx="2" fill="#3d444d"><title>2026-06-17: 0</title></rect><rect x="593" y="128" width="12" height="12" rx="2" fill="#4493f899"><title>2026-06-18: 3</title></rect><rect x="593" y="143" width="12" height="12" rx="2" fill="#4493f8cc"><title>2026-06-19: 10</title></rect><rect x="593" y="158" width="12" height="12" rx="2" fill="#4493f8cc"><title>2026-06-20: 10</title></rect><rect x="608" y="68" width="12" height="12" rx="2" fill="#4493f899"><title>2026-06-21: 4</title></rect><rect x="608" y="83" width="12" height="12" rx="2" fill="#4493f8cc"><title>2026-06-22: 15</title></rect><rect x="608" y="98" width="12" height="12" rx="2" fill="#4493f8cc"><title>2026-06-23: 15</title></rect><rect x="608" y="113" width="12" height="12" rx="2" fill="#4493f8cc"><title>2026-06-24: 6</title></rect><rect x="608" y="128" width="12" height="12" rx="2" fill="#4493f899"><title>2026-06-25: 4</title></rect><rect x="608" y="143" width="12" height="12" rx="2" fill="#4493f8cc"><title>2026-06-26: 9</title></rect><rect x="608" y="158" width="12" height="12" rx="2" fill="#4493f899"><title>2026-06-27: 4</title></rect><rect x="623" y="68" width="12" height="12" rx="2" fill="#4493f8cc"><title>2026-06-28: 8</title></rect><rect x="623" y="83" width="12" height="12" rx="2" fill="#4493f8"><title>2026-06-29: 19</title></rect><rect x="623" y="98" width="12" height="12" rx="2" fill="#4493f8cc"><title>2026-06-30: 10</title></rect><rect x="623" y="113" width="12" height="12" rx="2" fill="#3d444d"><title>2026-07-01: 0</title></rect><rect x="623" y="128" width="12" height="12" rx="2" fill="#3d444d"><title>2026-07-02: 0</title></rect><rect x="623" y="143" width="12" height="12" rx="2" fill="#4493f855"><title>2026-07-03: 1</title></rect><rect x="623" y="158" width="12" height="12" rx="2" fill="#3d444d"><title>2026-07-04: 0</title></rect><rect x="638" y="68" width="12" height="12" rx="2" fill="#4493f855"><title>2026-07-05: 1</title></rect><rect x="638" y="83" width="12" height="12" rx="2" fill="#4493f8cc"><title>2026-07-06: 9</title></rect><rect x="638" y="98" width="12" height="12" rx="2" fill="#4493f899"><title>2026-07-07: 3</title></rect><rect x="638" y="113" width="12" height="12" rx="2" fill="#4493f8cc"><title>2026-07-08: 7</title></rect><rect x="638" y="128" width="12" height="12" rx="2" fill="#4493f8cc"><title>2026-07-09: 8</title></rect><rect x="638" y="143" width="12" height="12" rx="2" fill="#4493f8cc"><title>2026-07-10: 15</title></rect><rect x="638" y="158" width="12" height="12" rx="2" fill="#3d444d"><title>2026-07-11: 0</title></rect><rect x="653" y="68" width="12" height="12" rx="2" fill="#4493f855"><title>2026-07-12: 2</title></rect><rect x="653" y="83" width="12" height="12" rx="2" fill="#4493f8cc"><title>2026-07-13: 7</title></rect><rect x="653" y="98" width="12" height="12" rx="2" fill="#4493f8cc"><title>2026-07-14: 10</title></rect><rect x="653" y="113" width="12" height="12" rx="2" fill="#4493f899"><title>2026-07-15: 5</title></rect><rect x="653" y="128" width="12" height="12" rx="2" fill="#3d444d"><title>2026-07-16: 0</title></rect><rect x="653" y="143" width="12" height="12" rx="2" fill="#4493f855"><title>2026-07-17: 1</title></rect><rect x="653" y="158" width="12" height="12" rx="2" fill="#3d444d"><title>2026-07-18: 0</title></rect><rect x="668" y="68" width="12" height="12" rx="2" fill="#3d444d"><title>2026-07-19: 0</title></rect><rect x="668" y="83" width="12" height="12" rx="2" fill="#3d444d"><title>2026-07-20: 0</title></rect><rect x="668" y="98" width="12" height="12" rx="2" fill="#4493f8cc"><title>2026-07-21: 7</title></rect><rect x="668" y="113" width="12" height="12" rx="2" fill="#4493f899"><title>2026-07-22: 5</title></rect><rect x="668" y="128" width="12" height="12" rx="2" fill="#4493f8cc"><title>2026-07-23: 11</title></rect><rect x="668" y="143" width="12" height="12" rx="2" fill="#4493f8cc"><title>2026-07-24: 10</title></rect><rect x="668" y="158" width="12" height="12" rx="2" fill="#3d444d"><title>2026-07-25: 0</title></rect><rect x="683" y="68" width="12" height="12" rx="2" fill="#3d444d"><title>2026-07-26: 0</title></rect><rect x="683" y="83" width="12" height="12" rx="2" fill="#3d444d"><title>2026-07-27: 0</title></rect><rect x="683" y="98" width="12" height="12" rx="2" fill="#3d444d"><title>2026-07-28: 0</title></rect><rect x="683" y="113" width="12" height="12" rx="2" fill="#3d444d"><title>2026-07-29: 0</title></rect><rect x="683" y="128" width="12" height="12" rx="2" fill="#4493f8cc"><title>2026-07-30: 11</title></rect><rect x="683" y="143" width="12" height="12" rx="2" fill="#4493f855"><title>2026-07-31: 1</title></rect><rect x="683" y="158" width="12" height="12" rx="2" fill="#3d444d"><title>2026-08-01: 0</title></rect><rect x="698" y="68" width="12" height="12" rx="2" fill="#3d444d"><title>2026-08-02: 0</title></rect><rect x="698" y="83" width="12" height="12" rx="2" fill="#4493f8cc"><title>2026-08-03: 16</title></rect><rect x="698" y="98" width="12" height="12" rx="2" fill="#4493f8"><title>2026-08-04: 29</title></rect><rect x="698" y="113" width="12" height="12" rx="2" fill="#3d444d"><title>2026-08-05: 0</title></rect><rect x="698" y="128" width="12" height="12" rx="2" fill="#4493f8cc"><title>2026-08-06: 12</title></rect><rect x="698" y="143" width="12" height="12" rx="2" fill="#4493f8"><title>2026-08-07: 19</title></rect><rect x="698" y="158" width="12" height="12" rx="2" fill="#4493f855"><title>2026-08-08: 2</title></rect><rect x="713" y="68" width="12" height="12" rx="2" fill="#3d444d"><title>2026-08-09: 0</title></rect><rect x="713" y="83" width="12" height="12" rx="2" fill="#3d444d"><title>2026-08-10: 0</title></rect><rect x="713" y="98" width="12" height="12" rx="2" fill="#4493f855"><title>2026-08-11: 1</title></rect><rect x="713" y="113" width="12" height="12" rx="2" fill="#4493f8"><title>2026-08-12: 27</title></rect><rect x="713" y="128" width="12" height="12" rx="2" fill="#4493f8"><title>2026-08-13: 20</title></rect><rect x="713" y="143" width="12" height="12" rx="2" fill="#4493f8cc"><title>2026-08-14: 9</title></rect><rect x="713" y="158" width="12" height="12" rx="2" fill="#4493f855"><title>2026-08-15: 1</title></rect><rect x="728" y="68" width="12" height="12" rx="2" fill="#4493f855"><title>2026-08-16: 1</title></rect><rect x="728" y="83" width="12" height="12" rx="2" fill="#4493f855"><title>2026-08-17: 1</title></rect><rect x="728" y="98" width="12" height="12" rx="2" fill="#4493f899"><title>2026-08-18: 5</title></rect><rect x="728" y="113" width="12" height="12" rx="2" fill="#4493f8"><title>2026-08-19: 39</title></rect><rect x="728" y="128" width="12" height="12" rx="2" fill="#4493f8"><title>2026-08-20: 114</title></rect><rect x="728" y="143" width="12" height="12" rx="2" fill="#4493f8"><title>2026-08-21: 20</title></rect><rect x="728" y="158" width="12" height="12" rx="2" fill="#3d444d"><title>2026-08-22: 0</title></rect><rect x="743" y="68" width="12" height="12" rx="2" fill="#4493f8"><title>2026-08-23: 178</title></rect><rect x="743" y="83" width="12" height="12" rx="2" fill="#4493f8"><title>2026-08-24: 57</title></rect><rect x="743" y="98" width="12" height="12" rx="2" fill="#4493f899"><title>2026-08-25: 5</title></rect><rect x="743" y="113" width="12" height="12" rx="2" fill="#4493f855"><title>2026-08-26: 2</title></rect><rect x="743" y="128" width="12" height="12" rx="2" fill="#3d444d"><title>2026-08-27: 0</title></rect><rect x="743" y="143" width="12" height="12" rx="2" fill="#4493f8cc"><title>2026-08-28: 18</title></rect><rect x="743" y="158" width="12" height="12" rx="2" fill="#4493f8"><title>2026-08-29: 31</title></rect><rect x="758" y="68" width="12" height="12" rx="2" fill="#4493f8cc"><title>2026-08-30: 17</title></rect><rect x="758" y="83" width="12" height="12" rx="2" fill="#4493f8"><title>2026-08-31: 167</title></rect><rect x="758" y="98" width="12" height="12" rx="2" fill="#4493f8"><title>2026-09-01: 306</title></rect><rect x="758" y="113" width="12" height="12" rx="2" fill="#4493f8"><title>2026-09-02: 273</title></rect><rect x="758" y="128" width="12" height="12" rx="2" fill="#4493f8"><title>2026-09-03: 123</title></rect><rect x="758" y="143" width="12" height="12" rx="2" fill="#4493f8"><title>2026-09-04: 205</title></rect><rect x="758" y="158" width="12" height="12" rx="2" fill="#4493f8"><title>2026-09-05: 141</title></rect><rect x="773" y="68" width="12" height="12" rx="2" fill="#4493f8"><title>2026-09-06: 236</title></rect><rect x="773" y="83" width="12" height="12" rx="2" fill="#4493f8"><title>2026-09-07: 80</title></rect><rect x="773" y="98" width="12" height="12" rx="2" fill="#4493f8"><title>2026-09-08: 194</title></rect><rect x="773" y="113" width="12" height="12" rx="2" fill="#4493f8"><title>2026-09-09: 225</title></rect><rect x="773" y="128" width="12" height="12" rx="2" fill="#4493f8"><title>2026-09-10: 211</title></rect><rect x="773" y="143" width="12" height="12" rx="2" fill="#4493f8"><title>2026-09-11: 93</title></rect><rect x="773" y="158" width="12" height="12" rx="2" fill="#4493f8"><title>2026-09-12: 187</title></rect><rect x="788" y="68" width="12" height="12" rx="2" fill="#4493f8"><title>2026-09-13: 145</title></rect><rect x="788" y="83" width="12" height="12" rx="2" fill="#4493f8"><title>2026-09-14: 73</title></rect><rect x="788" y="98" width="12" height="12" rx="2" fill="#4493f8"><title>2026-09-15: 82</title></rect><rect x="788" y="113" width="12" height="12" rx="2" fill="#4493f8"><title>2026-09-16: 25</title></rect><rect x="788" y="128" width="12" height="12" rx="2" fill="#4493f8cc"><title>2026-09-17: 7</title></rect><rect x="788" y="143" width="12" height="12" rx="2" fill="#4493f8"><title>2026-09-18: 24</title></rect><rect x="788" y="158" width="12" height="12" rx="2" fill="#4493f8"><title>2026-09-19: 228</title></rect><rect x="803" y="68" width="12" height="12" rx="2" fill="#4493f8"><title>2026-09-20: 204</title></rect><rect x="803" y="83" width="12" height="12" rx="2" fill="#4493f8"><title>2026-09-21: 94</title></rect><rect x="803" y="98" width="12" height="12" rx="2" fill="#4493f8"><title>2026-09-22: 111</title></rect><rect x="803" y="113" width="12" height="12" rx="2" fill="#4493f8"><title>2026-09-23: 121</title></rect><rect x="803" y="128" width="12" height="12" rx="2" fill="#4493f8"><title>2026-09-24: 104</title></rect><rect x="803" y="143" width="12" height="12" rx="2" fill="#4493f8"><title>2026-09-25: 83</title></rect><rect x="803" y="158" width="12" height="12" rx="2" fill="#3d444d"><title>2026-09-26: 0</title></rect></svg>
